<svg xmlns="http://www.w3.org/2000/svg" width="133.09" height="46.154" viewBox="0 0 133.09 46.154"><g id="Logo" transform="translate(0 0)"><path id="Path_463" data-name="Path 463" d="M193.878,55.918a8.11,8.11,0,0,1-.662,3.328,7.466,7.466,0,0,1-1.807,2.529,8.263,8.263,0,0,1-2.65,1.611,9.318,9.318,0,0,1-6.43,0,8.049,8.049,0,0,1-2.65-1.611,7.558,7.558,0,0,1-1.792-2.529,8.1,8.1,0,0,1-.662-3.328,8,8,0,0,1,.662-3.313,7.44,7.44,0,0,1,1.792-2.5,7.791,7.791,0,0,1,2.65-1.566,9.8,9.8,0,0,1,6.43,0,7.99,7.99,0,0,1,2.65,1.566,7.351,7.351,0,0,1,1.807,2.5,8.009,8.009,0,0,1,.662,3.313m-4.758,0a4.281,4.281,0,0,0-.241-1.415,3.749,3.749,0,0,0-.693-1.22,3.534,3.534,0,0,0-1.114-.858,3.726,3.726,0,0,0-3.072,0,3.354,3.354,0,0,0-1.1.858,3.678,3.678,0,0,0-.662,1.22,4.551,4.551,0,0,0,0,2.831,3.87,3.87,0,0,0,.678,1.25,3.326,3.326,0,0,0,1.114.888,3.723,3.723,0,0,0,3.072,0,3.329,3.329,0,0,0,1.114-.888,3.87,3.87,0,0,0,.677-1.25,4.527,4.527,0,0,0,.226-1.415" transform="translate(-119.841 -32.457)" fill="#fff"></path><path id="Path_464" data-name="Path 464" d="M255.255,64.483h-4.969l-2.951-9.335h-.06l-2.891,9.335h-4.969l-5.18-15h5.33l2.59,9.486h.09l2.68-9.486H249.9l2.771,9.486h.06l2.62-9.486h5.119Z" transform="translate(-158.393 -33.463)" fill="#fff"></path><path id="Path_465" data-name="Path 465" d="M336.359,56.16v.6a5.277,5.277,0,0,1-.03.572H325.458a2.613,2.613,0,0,0,.376,1.144,3.245,3.245,0,0,0,.813.888,3.988,3.988,0,0,0,2.394.8,4.155,4.155,0,0,0,1.987-.436,3.928,3.928,0,0,0,1.325-1.129l3.433,2.168A6.951,6.951,0,0,1,333,63.131a9.221,9.221,0,0,1-4.02.828,9.6,9.6,0,0,1-3.192-.527,7.739,7.739,0,0,1-2.635-1.536,7.106,7.106,0,0,1-1.777-2.484,8.313,8.313,0,0,1-.648-3.373,8.441,8.441,0,0,1,.632-3.328,7.522,7.522,0,0,1,1.716-2.529,7.653,7.653,0,0,1,2.56-1.611A8.759,8.759,0,0,1,328.831,48a8.081,8.081,0,0,1,3.041.557,6.627,6.627,0,0,1,2.379,1.611,7.445,7.445,0,0,1,1.551,2.56,9.853,9.853,0,0,1,.557,3.433m-4.547-1.9a2.961,2.961,0,0,0-.738-2.018,2.786,2.786,0,0,0-2.213-.843,3.746,3.746,0,0,0-1.325.226,3.429,3.429,0,0,0-1.054.617,3.056,3.056,0,0,0-.723.918,2.686,2.686,0,0,0-.3,1.1Z" transform="translate(-216.881 -32.457)" fill="#fff"></path><path id="Path_466" data-name="Path 466" d="M390.073,52.671a3.856,3.856,0,0,0-.648-.12q-.316-.03-.617-.03a3.53,3.53,0,0,0-1.671.36,3.407,3.407,0,0,0-1.084.871,3.3,3.3,0,0,0-.587,1.111,3.719,3.719,0,0,0-.181,1.051V63.6h-4.939V48.623H385.1v2.168h.06a4.886,4.886,0,0,1,1.626-1.88,4.188,4.188,0,0,1,2.439-.728,5.709,5.709,0,0,1,.587.03,2.307,2.307,0,0,1,.467.09Z" transform="translate(-257.194 -32.583)" fill="#fff"></path><path id="Path_467" data-name="Path 467" d="M18.421,108.29h0l-6.706-3.073-9.848,4.539,16.55,7.547.006,0h0l0,0,16.515-7.531-9.848-4.539Z" transform="translate(-1.262 -71.149)" fill="#fff"></path><path id="Path_468" data-name="Path 468" d="M63.228,25.713l-5.739-2.645-3.245,1.487L59.965,27.2Z" transform="translate(-36.68 -15.599)" fill="#fff"></path><path id="Path_469" data-name="Path 469" d="M27.28,27.211l5.731-2.641-3.161-1.449L24.11,25.766Z" transform="translate(-16.304 -15.634)" fill="#fff"></path><path id="Path_470" data-name="Path 470" d="M22.109,14.081h0Z" transform="translate(-14.95 -9.522)" fill="#fff"></path><path id="Path_471" data-name="Path 471" d="M66.3,62.134l-7.475-3.445-4.472,2.05,7.463,3.44Z" transform="translate(-36.754 -39.686)" fill="#fff"></path><path id="Path_472" data-name="Path 472" d="M19.166,64.155l7.463-3.44-4.515-2.069L14.64,62.091Z" transform="translate(-9.899 -39.657)" fill="#fff"></path><path id="Path_473" data-name="Path 473" d="M22.109,30.378h0Z" transform="translate(-14.95 -20.542)" fill="#fff"></path><rect id="Rectangle_69" data-name="Rectangle 69" width="0.001" height="0.001" transform="translate(17.159 5.252)" fill="#fff"></rect><path id="Path_474" data-name="Path 474" d="M83.882,30.376h0Z" transform="translate(-56.721 -20.54)" fill="#fff"></path><path id="Path_475" data-name="Path 475" d="M27.866,7.2l4.243-1.944h0L36.353,7.2,42.11,9.835h0V4.559h0L32.113,0l0,0h0l-10,4.558h0V9.835h0Z" transform="translate(-14.95 0)" fill="#fff"></path><path id="Path_476" data-name="Path 476" d="M12.769,68.435h0Z" transform="translate(-8.635 -46.276)" fill="#fff"></path><path id="Path_477" data-name="Path 477" d="M52.994,50h0Z" transform="translate(-35.835 -33.809)" fill="#fff"></path><path id="Path_478" data-name="Path 478" d="M93.221,68.431h0Z" transform="translate(-63.036 -46.273)" fill="#fff"></path><path id="Path_479" data-name="Path 479" d="M34.631,32.9l-3.3-1.5L25.8,28.871l0,0h0l0,0-5.532,2.523-7.488,3.414h0v6.871h0l7.5-3.436,5.525-2.532v0h0l5.525,2.532,7.5,3.436h0V34.808h0L37.64,34.27l-.007.016Z" transform="translate(-8.635 -19.523)" fill="#fff"></path><path id="Path_480" data-name="Path 480" d="M52.994,50h0Z" transform="translate(-35.835 -33.808)" fill="#fff"></path><rect id="Rectangle_70" data-name="Rectangle 70" height="0.003" transform="translate(17.16 21.457)" fill="#fff"></rect><rect id="Rectangle_71" data-name="Rectangle 71" height="0.001" transform="translate(17.158 21.458)" fill="#fff"></rect><rect id="Rectangle_72" data-name="Rectangle 72" width="0.002" height="0.002" transform="translate(17.159 21.458)" fill="#fff"></rect><path id="Path_481" data-name="Path 481" d="M9.879,78.613l7.279-3.336h0l7.279,3.336,9.878,4.527h0V74.085h0l-9.874-4.5-7.279-3.319,0,0v0h0l0,0L9.876,69.584,0,74.086H0V83.14H0Zm7.279-12.051h0v0h0Z" transform="translate(0 -44.808)" fill="#fff"></path><path id="Path_482" data-name="Path 482" d="M53,66.278h0Z" transform="translate(-35.838 -44.818)" fill="#fff"></path><path id="Path_483" data-name="Path 483" d="M52.993,66.276h0Z" transform="translate(-35.834 -44.817)" fill="#fff"></path><path id="Path_484" data-name="Path 484" d="M52.994,66.276Z" transform="translate(-35.835 -44.816)" fill="#fff"></path><rect id="Rectangle_73" data-name="Rectangle 73" height="0.002" transform="translate(17.16 21.753)" fill="#fff"></rect><path id="Path_485" data-name="Path 485" d="M52.993,67.186h0Z" transform="translate(-35.834 -45.432)" fill="#fff"></path><rect id="Rectangle_74" data-name="Rectangle 74" width="0.002" height="0.001" transform="translate(17.159 21.754)" fill="#fff"></rect><path id="Path_486" data-name="Path 486" d="M53,67.191h0Z" transform="translate(-35.838 -45.435)" fill="#fff"></path><rect id="Rectangle_75" data-name="Rectangle 75" height="0.001" transform="translate(17.158 21.754)" fill="#fff"></rect><path id="Path_487" data-name="Path 487" d="M52.994,67.187h0Z" transform="translate(-35.835 -45.432)" fill="#fff"></path><path id="Path_488" data-name="Path 488" d="M83.288,42.7l.007-.016L80.287,41.31Z" transform="translate(-54.291 -27.934)" fill="#fff"></path><path id="Path_462" data-name="Path 462" d="M138.267,34.352V51.276h-5.15V34.352h-6.023v-4.4h17.2v4.4Z" transform="translate(-85.943 -20.256)" fill="#fff"></path></g></svg>